ISO-10303-21;
HEADER;
/* Generated by software containing ST-Developer
 * from STEP Tools, Inc. (www.steptools.com) 
 */
/* OPTION: using custom renumber hook */

FILE_DESCRIPTION(
/* description */ ('STEP AP242',
'CAx-IF Rec.Pracs.---Representation and Presentation of Product Manufa
cturing Information (PMI)---4.0---2014-10-13',
'CAx-IF Rec.Pracs.---3D Tessellated Geometry---0.4---2014-09-14','2;1'),

/* implementation_level */ '2;1');

FILE_NAME(
/* name */ '642469c91269fe207307e578',
/* time_stamp */ '2023-03-29T16:39:37+00:00',
/* author */ (''),
/* organization */ (''),
/* preprocessor_version */ 'ST-DEVELOPER v18.102',
/* originating_system */ '  ',
/* authorisation */ '  ');

FILE_SCHEMA (('AP242_MANAGED_MODEL_BASED_3D_ENGINEERING_MIM_LF { 1 0 10303 442 1 1 4 }'));
ENDSEC;

DATA;
#10=SHAPE_REPRESENTATION_RELATIONSHIP('','',#222,#11);
#11=ADVANCED_BREP_SHAPE_REPRESENTATION('',(#220),#636);
#12=CONICAL_SURFACE('',#235,0.0134508241489959,0.801782268065376);
#13=CONICAL_SURFACE('',#236,0.0144818970001198,0.801782268065389);
#14=PLANE('',#229);
#15=PLANE('',#231);
#16=B_SPLINE_SURFACE_WITH_KNOTS('',3,3,((#295,#296,#297,#298,#299,#300,
#301,#302,#303,#304,#305,#306,#307,#308,#309,#310,#311,#312,#313),(#314,
#315,#316,#317,#318,#319,#320,#321,#322,#323,#324,#325,#326,#327,#328,#329,
#330,#331,#332),(#333,#334,#335,#336,#337,#338,#339,#340,#341,#342,#343,
#344,#345,#346,#347,#348,#349,#350,#351),(#352,#353,#354,#355,#356,#357,
#358,#359,#360,#361,#362,#363,#364,#365,#366,#367,#368,#369,#370),(#371,
#372,#373,#374,#375,#376,#377,#378,#379,#380,#381,#382,#383,#384,#385,#386,
#387,#388,#389)),.UNSPECIFIED.,.F.,.T.,.F.,(4,1,4),(1,1,1,1,1,1,1,1,1,1,
1,1,1,1,1,1,1,1,1,1,1,1,1),(0.00689997373372075,0.5,0.993100026266279),
(-1.17809724509617,-0.785398163397448,-0.392699081698725,0.,0.392699081698724,
0.785398163397448,1.17809724509617,1.5707963267949,1.96349540849362,2.35619449019234,
2.74889357189107,3.14159265358979,3.53429173528852,3.92699081698724,4.31968989868597,
4.71238898038469,5.10508806208341,5.49778714378214,5.89048622548086,6.28318530717959,
6.67588438887831,7.06858347057703,7.46128255227576),.UNSPECIFIED.);
#17=B_SPLINE_SURFACE_WITH_KNOTS('',1,3,((#529,#530,#531,#532,#533,#534,
#535,#536,#537,#538,#539,#540,#541,#542,#543,#544,#545,#546,#547,#548,#549,
#550,#551,#552,#553,#554),(#555,#556,#557,#558,#559,#560,#561,#562,#563,
#564,#565,#566,#567,#568,#569,#570,#571,#572,#573,#574,#575,#576,#577,#578,
#579,#580)),.RULED_SURF.,.F.,.T.,.F.,(2,2),(2,2,2,2,2,2,2,2,2,2,2,2,2,2,
2),(0.,1.),(-0.000497619235411927,0.00111644224487498,0.00273050372516188,
0.00434456520544878,0.0075726881660226,0.0108008111265964,0.0140289340871702,
0.017257057047744,0.018871118528031,0.0204851800083178,0.0220992414886047,
0.0237133029688916,0.0253273644491786,0.0269414259294655,0.0285554874097524),
 .UNSPECIFIED.);
#18=B_SPLINE_SURFACE_WITH_KNOTS('',1,3,((#581,#582,#583,#584,#585,#586,
#587,#588,#589,#590,#591,#592,#593,#594,#595,#596,#597,#598,#599,#600,#601,
#602,#603,#604,#605,#606),(#607,#608,#609,#610,#611,#612,#613,#614,#615,
#616,#617,#618,#619,#620,#621,#622,#623,#624,#625,#626,#627,#628,#629,#630,
#631,#632)),.RULED_SURF.,.F.,.T.,.F.,(2,2),(2,2,2,2,2,2,2,2,2,2,2,2,2,2,
2),(0.,1.),(-0.0289530929376588,-0.0257220969100083,-0.0241065988961832,
-0.022491100882358,-0.0192601048547075,-0.0176446068408823,-0.0160291088270571,
-0.0127981127994067,-0.00956711677175627,-0.00795161875793106,-0.00633612074410585,
-0.00472062273028064,-0.00310512471645543,0.000125871311194986,0.00174136932502019),
 .UNSPECIFIED.);
#19=CIRCLE('',#225,0.01145);
#20=CIRCLE('',#226,0.01145);
#21=CIRCLE('',#227,0.0144818970001198);
#22=CIRCLE('',#228,0.0144818970001198);
#23=CIRCLE('',#230,0.0134508241489959);
#24=CIRCLE('',#232,0.0134508241489959);
#25=ORIENTED_EDGE('',*,*,#49,.T.);
#26=ORIENTED_EDGE('',*,*,#50,.T.);
#27=ORIENTED_EDGE('',*,*,#51,.F.);
#28=ORIENTED_EDGE('',*,*,#52,.F.);
#29=ORIENTED_EDGE('',*,*,#53,.T.);
#30=ORIENTED_EDGE('',*,*,#54,.T.);
#31=ORIENTED_EDGE('',*,*,#55,.T.);
#32=ORIENTED_EDGE('',*,*,#56,.T.);
#33=ORIENTED_EDGE('',*,*,#57,.T.);
#34=ORIENTED_EDGE('',*,*,#51,.T.);
#35=ORIENTED_EDGE('',*,*,#58,.T.);
#36=ORIENTED_EDGE('',*,*,#50,.F.);
#37=ORIENTED_EDGE('',*,*,#59,.T.);
#38=ORIENTED_EDGE('',*,*,#49,.F.);
#39=ORIENTED_EDGE('',*,*,#60,.T.);
#40=ORIENTED_EDGE('',*,*,#52,.T.);
#41=ORIENTED_EDGE('',*,*,#55,.F.);
#42=ORIENTED_EDGE('',*,*,#60,.F.);
#43=ORIENTED_EDGE('',*,*,#59,.F.);
#44=ORIENTED_EDGE('',*,*,#56,.F.);
#45=ORIENTED_EDGE('',*,*,#53,.F.);
#46=ORIENTED_EDGE('',*,*,#57,.F.);
#47=ORIENTED_EDGE('',*,*,#58,.F.);
#48=ORIENTED_EDGE('',*,*,#54,.F.);
#49=EDGE_CURVE('',#61,#61,#73,.T.);
#50=EDGE_CURVE('',#62,#62,#19,.T.);
#51=EDGE_CURVE('',#63,#63,#20,.F.);
#52=EDGE_CURVE('',#64,#64,#74,.T.);
#53=EDGE_CURVE('',#65,#65,#21,.F.);
#54=EDGE_CURVE('',#66,#66,#22,.T.);
#55=EDGE_CURVE('',#67,#67,#75,.T.);
#56=EDGE_CURVE('',#68,#68,#76,.T.);
#57=EDGE_CURVE('',#69,#69,#23,.T.);
#58=EDGE_CURVE('',#70,#70,#24,.F.);
#59=EDGE_CURVE('',#71,#71,#77,.T.);
#60=EDGE_CURVE('',#72,#72,#78,.T.);
#61=VERTEX_POINT('',#278);
#62=VERTEX_POINT('',#280);
#63=VERTEX_POINT('',#282);
#64=VERTEX_POINT('',#294);
#65=VERTEX_POINT('',#391);
#66=VERTEX_POINT('',#393);
#67=VERTEX_POINT('',#413);
#68=VERTEX_POINT('',#433);
#69=VERTEX_POINT('',#436);
#70=VERTEX_POINT('',#439);
#71=VERTEX_POINT('',#483);
#72=VERTEX_POINT('',#528);
#73=B_SPLINE_CURVE_WITH_KNOTS('',3,(#267,#268,#269,#270,#271,#272,#273,
#274,#275,#276,#277),.UNSPECIFIED.,.T.,.F.,(1,1,1,1,1,1,1,1,1,1,1,1,1,1,
1),(-0.00469811189401212,-0.00313207459600808,-0.00156603729800404,8.15379968576822E-19,
0.00156603729800404,0.00313207459600808,0.00469811189401212,0.00626414919201616,
0.0078301864900202,0.00939622378802424,0.0109622610860283,0.0125282983840323,
0.0140943356820364,0.0156603729800404,0.0172264102780444),.UNSPECIFIED.);
#74=B_SPLINE_CURVE_WITH_KNOTS('',3,(#283,#284,#285,#286,#287,#288,#289,
#290,#291,#292,#293),.UNSPECIFIED.,.T.,.F.,(1,1,1,1,1,1,1,1,1,1,1,1,1,1,
1),(-0.00469811189401211,-0.00313207459600807,-0.00156603729800403,4.05271541753507E-18,
0.00156603729800404,0.00313207459600808,0.00469811189401212,0.00626414919201615,
0.00783018649002019,0.00939622378802423,0.0109622610860283,0.0125282983840323,
0.0140943356820363,0.0156603729800404,0.0172264102780444),.UNSPECIFIED.);
#75=B_SPLINE_CURVE_WITH_KNOTS('',3,(#394,#395,#396,#397,#398,#399,#400,
#401,#402,#403,#404,#405,#406,#407,#408,#409,#410,#411,#412),
 .UNSPECIFIED.,.T.,.F.,(1,1,1,1,1,1,1,1,1,1,1,1,1,1,1,1,1,1,1,1,1,1,1),
(-0.190789473684211,-0.128289473684211,-0.0657894736842105,0.,0.059375,
0.12171875,0.1842109375,0.246710546875,0.30921052734375,0.371710526367187,
0.434210526318359,0.496710526315918,0.559210526315796,0.62171052631579,
0.684210526315789,0.746710526315789,0.809210526315789,0.871710526315789,
0.934210526315789,1.,1.059375,1.12171875,1.1842109375),.UNSPECIFIED.);
#76=B_SPLINE_CURVE_WITH_KNOTS('',3,(#414,#415,#416,#417,#418,#419,#420,
#421,#422,#423,#424,#425,#426,#427,#428,#429,#430,#431,#432),
 .UNSPECIFIED.,.T.,.F.,(1,1,1,1,1,1,1,1,1,1,1,1,1,1,1,1,1,1,1,1,1,1,1),
(-0.190789473684211,-0.128289473684211,-0.0657894736842105,0.,0.059375,
0.12171875,0.1842109375,0.246710546875,0.30921052734375,0.371710526367187,
0.434210526318359,0.496710526315918,0.559210526315796,0.62171052631579,
0.684210526315789,0.746710526315789,0.809210526315789,0.871710526315789,
0.934210526315789,1.,1.059375,1.12171875,1.1842109375),.UNSPECIFIED.);
#77=B_SPLINE_CURVE_WITH_KNOTS('',3,(#441,#442,#443,#444,#445,#446,#447,
#448,#449,#450,#451,#452,#453,#454,#455,#456,#457,#458,#459,#460,#461,#462,
#463,#464,#465,#466,#467,#468,#469,#470,#471,#472,#473,#474,#475,#476,#477,
#478,#479,#480,#481,#482),.UNSPECIFIED.,.T.,.F.,(1,1,1,1,1,1,1,1,1,1,1,
1,1,1,1,1,1,1,1,1,1,1,1,1,1,1,1,1,1,1,1,1,1,1,1,1,1,1,1,1,1,1,1,1,1,1),
(-0.0970394736842106,-0.0657894736842105,-0.0328947368421053,0.,0.0296875,
0.059375,0.090546875,0.12171875,0.137341796875,0.15296484375,0.168587890625,
0.1842109375,0.192023388671875,0.19983583984375,0.2154607421875,0.246710546875,
0.277960537109375,0.30921052734375,0.340460526855469,0.371710526367187,
0.402960526342773,0.418585526330566,0.434210526318359,0.465460526317139,
0.496710526315918,0.527960526315857,0.543585526315826,0.559210526315796,
0.590460526315793,0.62171052631579,0.65296052631579,0.684210526315789,0.746710526315789,
0.777960526315789,0.793585526315789,0.809210526315789,0.824835526315789,
0.840460526315789,0.871710526315789,0.902960526315789,0.934210526315789,
0.967105263157895,1.,1.0296875,1.059375,1.090546875),.UNSPECIFIED.);
#78=B_SPLINE_CURVE_WITH_KNOTS('',3,(#485,#486,#487,#488,#489,#490,#491,
#492,#493,#494,#495,#496,#497,#498,#499,#500,#501,#502,#503,#504,#505,#506,
#507,#508,#509,#510,#511,#512,#513,#514,#515,#516,#517,#518,#519,#520,#521,
#522,#523,#524,#525,#526,#527),.UNSPECIFIED.,.T.,.F.,(1,1,1,1,1,1,1,1,1,
1,1,1,1,1,1,1,1,1,1,1,1,1,1,1,1,1,1,1,1,1,1,1,1,1,1,1,1,1,1,1,1,1,1,1,1,
1,1),(-0.0814144736842106,-0.0657894736842105,-0.0328947368421053,0.,0.0296875,
0.04453125,0.059375,0.090546875,0.12171875,0.15296484375,0.1842109375,0.2154607421875,
0.246710546875,0.277960537109375,0.293585532226562,0.30921052734375,0.324835527099609,
0.340460526855469,0.371710526367187,0.402960526342773,0.434210526318359,
0.465460526317139,0.496710526315918,0.527960526315857,0.559210526315796,
0.590460526315793,0.62171052631579,0.63733552631579,0.65296052631579,0.66858552631579,
0.684210526315789,0.692023026315789,0.699835526315789,0.715460526315789,
0.746710526315789,0.777960526315789,0.809210526315789,0.840460526315789,
0.871710526315789,0.902960526315789,0.918585526315789,0.934210526315789,
0.967105263157895,1.,1.0296875,1.04453125,1.059375),.UNSPECIFIED.);
#79=EDGE_LOOP('',(#25));
#80=EDGE_LOOP('',(#26));
#81=EDGE_LOOP('',(#27));
#82=EDGE_LOOP('',(#28));
#83=EDGE_LOOP('',(#29));
#84=EDGE_LOOP('',(#30));
#85=EDGE_LOOP('',(#31));
#86=EDGE_LOOP('',(#32));
#87=EDGE_LOOP('',(#33));
#88=EDGE_LOOP('',(#34));
#89=EDGE_LOOP('',(#35));
#90=EDGE_LOOP('',(#36));
#91=EDGE_LOOP('',(#37));
#92=EDGE_LOOP('',(#38));
#93=EDGE_LOOP('',(#39));
#94=EDGE_LOOP('',(#40));
#95=EDGE_LOOP('',(#41));
#96=EDGE_LOOP('',(#42));
#97=EDGE_LOOP('',(#43));
#98=EDGE_LOOP('',(#44));
#99=EDGE_LOOP('',(#45));
#100=EDGE_LOOP('',(#46));
#101=EDGE_LOOP('',(#47));
#102=EDGE_LOOP('',(#48));
#103=FACE_BOUND('',#79,.T.);
#104=FACE_BOUND('',#80,.T.);
#105=FACE_BOUND('',#81,.T.);
#106=FACE_BOUND('',#82,.T.);
#107=FACE_BOUND('',#83,.T.);
#108=FACE_BOUND('',#84,.T.);
#109=FACE_BOUND('',#85,.T.);
#110=FACE_BOUND('',#86,.T.);
#111=FACE_BOUND('',#87,.T.);
#112=FACE_BOUND('',#88,.T.);
#113=FACE_BOUND('',#89,.T.);
#114=FACE_BOUND('',#90,.T.);
#115=FACE_BOUND('',#91,.T.);
#116=FACE_BOUND('',#92,.T.);
#117=FACE_BOUND('',#93,.T.);
#118=FACE_BOUND('',#94,.T.);
#119=FACE_BOUND('',#95,.T.);
#120=FACE_BOUND('',#96,.T.);
#121=FACE_BOUND('',#97,.T.);
#122=FACE_BOUND('',#98,.T.);
#123=FACE_BOUND('',#99,.T.);
#124=FACE_BOUND('',#100,.T.);
#125=FACE_BOUND('',#101,.T.);
#126=FACE_BOUND('',#102,.T.);
#127=CYLINDRICAL_SURFACE('',#224,0.01145);
#128=CYLINDRICAL_SURFACE('',#233,0.002);
#129=CYLINDRICAL_SURFACE('',#234,0.002);
#130=OVER_RIDING_STYLED_ITEM('',(#153),#140,#151);
#131=OVER_RIDING_STYLED_ITEM('',(#154),#141,#151);
#132=OVER_RIDING_STYLED_ITEM('',(#155),#142,#151);
#133=OVER_RIDING_STYLED_ITEM('',(#156),#143,#151);
#134=OVER_RIDING_STYLED_ITEM('',(#157),#144,#151);
#135=OVER_RIDING_STYLED_ITEM('',(#158),#145,#151);
#136=OVER_RIDING_STYLED_ITEM('',(#159),#146,#151);
#137=OVER_RIDING_STYLED_ITEM('',(#160),#147,#151);
#138=OVER_RIDING_STYLED_ITEM('',(#161),#148,#151);
#139=OVER_RIDING_STYLED_ITEM('',(#162),#149,#151);
#140=ADVANCED_FACE('',(#103,#104,#105,#106),#127,.F.);
#141=ADVANCED_FACE('',(#107,#108,#109,#110),#16,.T.);
#142=ADVANCED_FACE('',(#111,#112),#14,.T.);
#143=ADVANCED_FACE('',(#113,#114),#15,.F.);
#144=ADVANCED_FACE('',(#115,#116),#128,.F.);
#145=ADVANCED_FACE('',(#117,#118),#129,.F.);
#146=ADVANCED_FACE('',(#119,#120),#17,.T.);
#147=ADVANCED_FACE('',(#121,#122),#18,.T.);
#148=ADVANCED_FACE('',(#123,#124),#12,.T.);
#149=ADVANCED_FACE('',(#125,#126),#13,.T.);
#150=CLOSED_SHELL('',(#140,#141,#142,#143,#144,#145,#146,#147,#148,#149));
#151=STYLED_ITEM('',(#152),#220);
#152=PRESENTATION_STYLE_ASSIGNMENT((#163));
#153=PRESENTATION_STYLE_ASSIGNMENT((#164));
#154=PRESENTATION_STYLE_ASSIGNMENT((#165));
#155=PRESENTATION_STYLE_ASSIGNMENT((#166));
#156=PRESENTATION_STYLE_ASSIGNMENT((#167));
#157=PRESENTATION_STYLE_ASSIGNMENT((#168));
#158=PRESENTATION_STYLE_ASSIGNMENT((#169));
#159=PRESENTATION_STYLE_ASSIGNMENT((#170));
#160=PRESENTATION_STYLE_ASSIGNMENT((#171));
#161=PRESENTATION_STYLE_ASSIGNMENT((#172));
#162=PRESENTATION_STYLE_ASSIGNMENT((#173));
#163=SURFACE_STYLE_USAGE(.BOTH.,#174);
#164=SURFACE_STYLE_USAGE(.BOTH.,#175);
#165=SURFACE_STYLE_USAGE(.BOTH.,#176);
#166=SURFACE_STYLE_USAGE(.BOTH.,#177);
#167=SURFACE_STYLE_USAGE(.BOTH.,#178);
#168=SURFACE_STYLE_USAGE(.BOTH.,#179);
#169=SURFACE_STYLE_USAGE(.BOTH.,#180);
#170=SURFACE_STYLE_USAGE(.BOTH.,#181);
#171=SURFACE_STYLE_USAGE(.BOTH.,#182);
#172=SURFACE_STYLE_USAGE(.BOTH.,#183);
#173=SURFACE_STYLE_USAGE(.BOTH.,#184);
#174=SURFACE_SIDE_STYLE('',(#185));
#175=SURFACE_SIDE_STYLE('',(#186));
#176=SURFACE_SIDE_STYLE('',(#187));
#177=SURFACE_SIDE_STYLE('',(#188));
#178=SURFACE_SIDE_STYLE('',(#189));
#179=SURFACE_SIDE_STYLE('',(#190));
#180=SURFACE_SIDE_STYLE('',(#191));
#181=SURFACE_SIDE_STYLE('',(#192));
#182=SURFACE_SIDE_STYLE('',(#193));
#183=SURFACE_SIDE_STYLE('',(#194));
#184=SURFACE_SIDE_STYLE('',(#195));
#185=SURFACE_STYLE_FILL_AREA(#196);
#186=SURFACE_STYLE_FILL_AREA(#197);
#187=SURFACE_STYLE_FILL_AREA(#198);
#188=SURFACE_STYLE_FILL_AREA(#199);
#189=SURFACE_STYLE_FILL_AREA(#200);
#190=SURFACE_STYLE_FILL_AREA(#201);
#191=SURFACE_STYLE_FILL_AREA(#202);
#192=SURFACE_STYLE_FILL_AREA(#203);
#193=SURFACE_STYLE_FILL_AREA(#204);
#194=SURFACE_STYLE_FILL_AREA(#205);
#195=SURFACE_STYLE_FILL_AREA(#206);
#196=FILL_AREA_STYLE('',(#207));
#197=FILL_AREA_STYLE('',(#208));
#198=FILL_AREA_STYLE('',(#209));
#199=FILL_AREA_STYLE('',(#210));
#200=FILL_AREA_STYLE('',(#211));
#201=FILL_AREA_STYLE('',(#212));
#202=FILL_AREA_STYLE('',(#213));
#203=FILL_AREA_STYLE('',(#214));
#204=FILL_AREA_STYLE('',(#215));
#205=FILL_AREA_STYLE('',(#216));
#206=FILL_AREA_STYLE('',(#217));
#207=FILL_AREA_STYLE_COLOUR('',#218);
#208=FILL_AREA_STYLE_COLOUR('',#219);
#209=FILL_AREA_STYLE_COLOUR('',#219);
#210=FILL_AREA_STYLE_COLOUR('',#219);
#211=FILL_AREA_STYLE_COLOUR('',#219);
#212=FILL_AREA_STYLE_COLOUR('',#219);
#213=FILL_AREA_STYLE_COLOUR('',#219);
#214=FILL_AREA_STYLE_COLOUR('',#219);
#215=FILL_AREA_STYLE_COLOUR('',#219);
#216=FILL_AREA_STYLE_COLOUR('',#219);
#217=FILL_AREA_STYLE_COLOUR('',#219);
#218=COLOUR_RGB('',0.615686274509804,0.811764705882353,0.929411764705882);
#219=COLOUR_RGB('',0.301960784313725,0.301960784313725,0.301960784313725);
#220=MANIFOLD_SOLID_BREP('7/8" Handle Grip',#150);
#221=SHAPE_DEFINITION_REPRESENTATION(#641,#222);
#222=SHAPE_REPRESENTATION('7/8" Handle Grip',(#223),#636);
#223=AXIS2_PLACEMENT_3D('',#265,#237,#238);
#224=AXIS2_PLACEMENT_3D('',#266,#239,#240);
#225=AXIS2_PLACEMENT_3D('',#279,#241,#242);
#226=AXIS2_PLACEMENT_3D('',#281,#243,#244);
#227=AXIS2_PLACEMENT_3D('',#390,#245,#246);
#228=AXIS2_PLACEMENT_3D('',#392,#247,#248);
#229=AXIS2_PLACEMENT_3D('',#434,#249,#250);
#230=AXIS2_PLACEMENT_3D('',#435,#251,#252);
#231=AXIS2_PLACEMENT_3D('',#437,#253,#254);
#232=AXIS2_PLACEMENT_3D('',#438,#255,#256);
#233=AXIS2_PLACEMENT_3D('',#440,#257,#258);
#234=AXIS2_PLACEMENT_3D('',#484,#259,#260);
#235=AXIS2_PLACEMENT_3D('',#633,#261,#262);
#236=AXIS2_PLACEMENT_3D('',#634,#263,#264);
#237=DIRECTION('',(0.,0.,1.));
#238=DIRECTION('',(1.,0.,0.));
#239=DIRECTION('',(1.,0.,0.));
#240=DIRECTION('',(0.,0.,-1.));
#241=DIRECTION('',(1.,0.,0.));
#242=DIRECTION('',(0.,0.,-1.));
#243=DIRECTION('',(-1.,0.,0.));
#244=DIRECTION('',(0.,0.,1.));
#245=DIRECTION('',(-1.,0.,0.));
#246=DIRECTION('',(0.,0.,1.));
#247=DIRECTION('',(-1.,0.,0.));
#248=DIRECTION('',(0.,0.,1.));
#249=DIRECTION('',(-1.,0.,0.));
#250=DIRECTION('',(0.,0.,1.));
#251=DIRECTION('',(-1.,0.,0.));
#252=DIRECTION('',(0.,0.,1.));
#253=DIRECTION('',(-1.,0.,0.));
#254=DIRECTION('',(0.,0.,1.));
#255=DIRECTION('',(-1.,0.,0.));
#256=DIRECTION('',(0.,0.,1.));
#257=DIRECTION('',(0.,0.,1.));
#258=DIRECTION('',(1.,0.,0.));
#259=DIRECTION('',(0.,0.,1.));
#260=DIRECTION('',(1.,0.,0.));
#261=DIRECTION('',(1.,0.,0.));
#262=DIRECTION('',(0.,0.,-1.));
#263=DIRECTION('',(-1.,0.,0.));
#264=DIRECTION('',(0.,0.,1.));
#265=CARTESIAN_POINT('',(0.,0.,0.));
#266=CARTESIAN_POINT('',(-0.075002,0.,7.0111029251186E-19));
#267=CARTESIAN_POINT('',(-0.0615658608961011,-0.0015689291922467,-0.0113624523922041));
#268=CARTESIAN_POINT('',(-0.0622169583792457,3.6720535231033E-7,-0.011493734882093));
#269=CARTESIAN_POINT('',(-0.0615663055869161,0.00156746037083746,-0.0113626080794237));
#270=CARTESIAN_POINT('',(-0.0600019673198271,0.0022162058616863,-0.0112296603888033));
#271=CARTESIAN_POINT('',(-0.0584327831148713,0.00156771416518797,-0.0113625974500279));
#272=CARTESIAN_POINT('',(-0.0577840170297833,6.1635753098422E-7,-0.011493620001493));
#273=CARTESIAN_POINT('',(-0.058431149699657,-0.0015654458992501,-0.0113629223809151));
#274=CARTESIAN_POINT('',(-0.0599984009691876,-0.00221640530954101,-0.0112296181512016));
#275=CARTESIAN_POINT('',(-0.0615658608961011,-0.0015689291922467,-0.0113624523922041));
#276=CARTESIAN_POINT('',(-0.0622169583792457,3.6720535231033E-7,-0.011493734882093));
#277=CARTESIAN_POINT('',(-0.0615663055869161,0.00156746037083746,-0.0113626080794237));
#278=CARTESIAN_POINT('',(-0.062,-8.39273565403947E-19,-0.01145));
#279=CARTESIAN_POINT('',(0.075,0.,7.0111029251186E-19));
#280=CARTESIAN_POINT('',(0.075,0.,-0.01145));
#281=CARTESIAN_POINT('',(-0.075,0.,7.0111029251186E-19));
#282=CARTESIAN_POINT('',(-0.075,0.,0.01145));
#283=CARTESIAN_POINT('',(0.0584341391038989,0.00156892919224671,-0.0113624523922041));
#284=CARTESIAN_POINT('',(0.0577830416207543,-3.67205352312579E-7,-0.011493734882093));
#285=CARTESIAN_POINT('',(0.0584336944130839,-0.00156746037083746,-0.0113626080794237));
#286=CARTESIAN_POINT('',(0.0599980326801729,-0.00221620586168629,-0.0112296603888033));
#287=CARTESIAN_POINT('',(0.0615672168851286,-0.00156771416518799,-0.0113625974500279));
#288=CARTESIAN_POINT('',(0.0622159829702167,-6.16357530981029E-7,-0.011493620001493));
#289=CARTESIAN_POINT('',(0.061568850300343,0.0015654458992501,-0.0113629223809151));
#290=CARTESIAN_POINT('',(0.0600015990308124,0.00221640530954101,-0.0112296181512016));
#291=CARTESIAN_POINT('',(0.0584341391038989,0.00156892919224671,-0.0113624523922041));
#292=CARTESIAN_POINT('',(0.0577830416207543,-3.67205352312579E-7,-0.011493734882093));
#293=CARTESIAN_POINT('',(0.0584336944130839,-0.00156746037083746,-0.0113626080794237));
#294=CARTESIAN_POINT('',(0.058,4.17147471010226E-18,-0.01145));
#295=CARTESIAN_POINT('',(-0.0740021718500159,-0.00568626236772849,0.0137278517273819));
#296=CARTESIAN_POINT('',(-0.0740021718500159,-1.10588621593521E-17,0.0148589196364887));
#297=CARTESIAN_POINT('',(-0.0740021718500159,0.00568626236772852,0.0137278517273819));
#298=CARTESIAN_POINT('',(-0.0740021718500159,0.0105068428360671,0.0105068428360671));
#299=CARTESIAN_POINT('',(-0.0740021718500159,0.0137278517273819,0.00568626236772852));
#300=CARTESIAN_POINT('',(-0.0740021718500159,0.0148589196364887,1.25360876193636E-18));
#301=CARTESIAN_POINT('',(-0.0740021718500159,0.0137278517273819,-0.00568626236772851));
#302=CARTESIAN_POINT('',(-0.0740021718500159,0.0105068428360671,-0.0105068428360671));
#303=CARTESIAN_POINT('',(-0.0740021718500159,0.00568626236772852,-0.0137278517273819));
#304=CARTESIAN_POINT('',(-0.0740021718500159,2.62338015165478E-18,-0.0148589196364887));
#305=CARTESIAN_POINT('',(-0.0740021718500159,-0.00568626236772852,-0.0137278517273819));
#306=CARTESIAN_POINT('',(-0.0740021718500159,-0.0105068428360671,-0.0105068428360671));
#307=CARTESIAN_POINT('',(-0.0740021718500159,-0.0137278517273819,-0.00568626236772852));
#308=CARTESIAN_POINT('',(-0.0740021718500159,-0.0148589196364887,-4.37746627141022E-18));
#309=CARTESIAN_POINT('',(-0.0740021718500159,-0.0137278517273819,0.00568626236772852));
#310=CARTESIAN_POINT('',(-0.0740021718500159,-0.0105068428360671,0.0105068428360671));
#311=CARTESIAN_POINT('',(-0.0740021718500159,-0.00568626236772849,0.0137278517273819));
#312=CARTESIAN_POINT('',(-0.0740021718500159,-1.10588621593521E-17,0.0148589196364887));
#313=CARTESIAN_POINT('',(-0.0740021718500159,0.00568626236772852,0.0137278517273819));
#314=CARTESIAN_POINT('',(-0.0502140193414495,-0.0059924378035258,0.0144670246169493));
#315=CARTESIAN_POINT('',(-0.0502140193414495,-1.05167610731094E-17,0.015658994606824));
#316=CARTESIAN_POINT('',(-0.0502140193414495,0.00599243780352583,0.0144670246169493));
#317=CARTESIAN_POINT('',(-0.0502140193414495,0.0110725812730488,0.0110725812730488));
#318=CARTESIAN_POINT('',(-0.0502140193414495,0.0144670246169493,0.00599243780352583));
#319=CARTESIAN_POINT('',(-0.0502140193414495,0.015658994606824,8.26704156520197E-19));
#320=CARTESIAN_POINT('',(-0.0502140193414495,0.0144670246169493,-0.00599243780352583));
#321=CARTESIAN_POINT('',(-0.0502140193414495,0.0110725812730488,-0.0110725812730488));
#322=CARTESIAN_POINT('',(-0.0502140193414495,0.00599243780352583,-0.0144670246169493));
#323=CARTESIAN_POINT('',(-0.0502140193414495,2.8296128219765E-18,-0.015658994606824));
#324=CARTESIAN_POINT('',(-0.0502140193414495,-0.00599243780352583,-0.0144670246169493));
#325=CARTESIAN_POINT('',(-0.0502140193414495,-0.0110725812730488,-0.0110725812730488));
#326=CARTESIAN_POINT('',(-0.0502140193414495,-0.0144670246169493,-0.00599243780352584));
#327=CARTESIAN_POINT('',(-0.0502140193414495,-0.015658994606824,-3.10352871873976E-18));
#328=CARTESIAN_POINT('',(-0.0502140193414495,-0.0144670246169493,0.00599243780352583));
#329=CARTESIAN_POINT('',(-0.0502140193414495,-0.0110725812730488,0.0110725812730488));
#330=CARTESIAN_POINT('',(-0.0502140193414495,-0.0059924378035258,0.0144670246169493));
#331=CARTESIAN_POINT('',(-0.0502140193414495,-1.05167610731094E-17,0.015658994606824));
#332=CARTESIAN_POINT('',(-0.0502140193414495,0.00599243780352583,0.0144670246169493));
#333=CARTESIAN_POINT('',(-2.74343305274851E-17,-0.00771091588225743,0.0186157977012641));
#334=CARTESIAN_POINT('',(-2.74343305274851E-17,-1.56125112837913E-17,0.0201495942340693));
#335=CARTESIAN_POINT('',(-2.74343305274851E-17,0.00771091588225748,0.0186157977012641));
#336=CARTESIAN_POINT('',(-2.74343305274851E-17,0.0142479147210678,0.0142479147210678));
#337=CARTESIAN_POINT('',(-2.74343305274851E-17,0.0186157977012641,0.00771091588225747));
#338=CARTESIAN_POINT('',(-2.74343305274851E-17,0.0201495942340693,9.99498877760074E-18));
#339=CARTESIAN_POINT('',(-2.74343305274851E-17,0.0186157977012641,-0.00771091588225748));
#340=CARTESIAN_POINT('',(-2.74343305274851E-17,0.0142479147210678,-0.0142479147210678));
#341=CARTESIAN_POINT('',(-2.74343305274851E-17,0.00771091588225748,-0.0186157977012641));
#342=CARTESIAN_POINT('',(-2.74343305274851E-17,3.35737390512003E-18,-0.0201495942340693));
#343=CARTESIAN_POINT('',(-2.74343305274851E-17,-0.00771091588225748,-0.0186157977012641));
#344=CARTESIAN_POINT('',(-2.74343305274851E-17,-0.0142479147210678,-0.0142479147210678));
#345=CARTESIAN_POINT('',(-2.74343305274851E-17,-0.0186157977012641,-0.00771091588225748));
#346=CARTESIAN_POINT('',(-2.74343305274851E-17,-0.0201495942340693,-4.0386530925085E-18));
#347=CARTESIAN_POINT('',(-2.74343305274851E-17,-0.0186157977012641,0.00771091588225747));
#348=CARTESIAN_POINT('',(-2.74343305274851E-17,-0.0142479147210678,0.0142479147210678));
#349=CARTESIAN_POINT('',(-2.74343305274851E-17,-0.00771091588225743,0.0186157977012641));
#350=CARTESIAN_POINT('',(-2.74343305274851E-17,-1.56125112837913E-17,0.0201495942340693));
#351=CARTESIAN_POINT('',(-2.74343305274851E-17,0.00771091588225748,0.0186157977012641));
#352=CARTESIAN_POINT('',(0.0502140193414495,-0.0059924378035258,0.0144670246169493));
#353=CARTESIAN_POINT('',(0.0502140193414495,-1.1817803680092E-17,0.015658994606824));
#354=CARTESIAN_POINT('',(0.0502140193414495,0.00599243780352583,0.0144670246169493));
#355=CARTESIAN_POINT('',(0.0502140193414495,0.0110725812730488,0.0110725812730488));
#356=CARTESIAN_POINT('',(0.0502140193414495,0.0144670246169493,0.00599243780352583));
#357=CARTESIAN_POINT('',(0.0502140193414495,0.015658994606824,-1.24683249835833E-18));
#358=CARTESIAN_POINT('',(0.0502140193414495,0.0144670246169493,-0.00599243780352582));
#359=CARTESIAN_POINT('',(0.0502140193414495,0.0110725812730488,-0.0110725812730488));
#360=CARTESIAN_POINT('',(0.0502140193414495,0.00599243780352583,-0.0144670246169493));
#361=CARTESIAN_POINT('',(0.0502140193414495,2.13230618303919E-18,-0.015658994606824));
#362=CARTESIAN_POINT('',(0.0502140193414495,-0.00599243780352583,-0.0144670246169493));
#363=CARTESIAN_POINT('',(0.0502140193414495,-0.0110725812730488,-0.0110725812730488));
#364=CARTESIAN_POINT('',(0.0502140193414495,-0.0144670246169493,-0.00599243780352583));
#365=CARTESIAN_POINT('',(0.0502140193414495,-0.015658994606824,-5.16351284646221E-18));
#366=CARTESIAN_POINT('',(0.0502140193414495,-0.0144670246169493,0.00599243780352583));
#367=CARTESIAN_POINT('',(0.0502140193414495,-0.0110725812730488,0.0110725812730488));
#368=CARTESIAN_POINT('',(0.0502140193414495,-0.0059924378035258,0.0144670246169493));
#369=CARTESIAN_POINT('',(0.0502140193414495,-1.1817803680092E-17,0.015658994606824));
#370=CARTESIAN_POINT('',(0.0502140193414495,0.00599243780352583,0.0144670246169493));
#371=CARTESIAN_POINT('',(0.0740021718500159,-0.00568626236772849,0.0137278517273819));
#372=CARTESIAN_POINT('',(0.0740021718500159,-1.10588621593521E-17,0.0148589196364887));
#373=CARTESIAN_POINT('',(0.0740021718500159,0.00568626236772852,0.0137278517273819));
#374=CARTESIAN_POINT('',(0.0740021718500159,0.0105068428360671,0.0105068428360671));
#375=CARTESIAN_POINT('',(0.0740021718500159,0.0137278517273819,0.00568626236772851));
#376=CARTESIAN_POINT('',(0.0740021718500159,0.0148589196364887,1.41285095602017E-18));
#377=CARTESIAN_POINT('',(0.0740021718500159,0.0137278517273819,-0.00568626236772851));
#378=CARTESIAN_POINT('',(0.0740021718500159,0.0105068428360671,-0.0105068428360671));
#379=CARTESIAN_POINT('',(0.0740021718500159,0.00568626236772852,-0.0137278517273819));
#380=CARTESIAN_POINT('',(0.0740021718500159,2.449050183198E-18,-0.0148589196364887));
#381=CARTESIAN_POINT('',(0.0740021718500159,-0.00568626236772851,-0.0137278517273819));
#382=CARTESIAN_POINT('',(0.0740021718500159,-0.0105068428360671,-0.0105068428360671));
#383=CARTESIAN_POINT('',(0.0740021718500159,-0.0137278517273819,-0.00568626236772852));
#384=CARTESIAN_POINT('',(0.0740021718500159,-0.0148589196364887,-4.22161220911543E-18));
#385=CARTESIAN_POINT('',(0.0740021718500159,-0.0137278517273819,0.00568626236772851));
#386=CARTESIAN_POINT('',(0.0740021718500159,-0.0105068428360671,0.0105068428360671));
#387=CARTESIAN_POINT('',(0.0740021718500159,-0.00568626236772849,0.0137278517273819));
#388=CARTESIAN_POINT('',(0.0740021718500159,-1.10588621593521E-17,0.0148589196364887));
#389=CARTESIAN_POINT('',(0.0740021718500159,0.00568626236772852,0.0137278517273819));
#390=CARTESIAN_POINT('',(-0.0740021718500159,0.,0.));
#391=CARTESIAN_POINT('',(-0.0740021718500159,0.,0.0144818970001198));
#392=CARTESIAN_POINT('',(0.0740021718500159,0.,0.));
#393=CARTESIAN_POINT('',(0.0740021718500159,0.,0.0144818970001198));
#394=CARTESIAN_POINT('',(0.0639630551909123,-0.00195784038268727,-0.0147893634829856));
#395=CARTESIAN_POINT('',(0.064307749484934,-6.30823243486067E-5,-0.0149076255902313));
#396=CARTESIAN_POINT('',(0.0639992058578435,0.00182098025632815,-0.0148020801897331));
#397=CARTESIAN_POINT('',(0.063130702891585,0.00339796285154781,-0.014549548641186));
#398=CARTESIAN_POINT('',(0.0617866242804527,0.00448931509462885,-0.0143003719978698));
#399=CARTESIAN_POINT('',(0.0601676169698105,0.00489465441563794,-0.0142420999388202));
#400=CARTESIAN_POINT('',(0.0585531732657661,0.00454181286719324,-0.0144496085086457));
#401=CARTESIAN_POINT('',(0.0571917324710006,0.00352082093423895,-0.0148173248804068));
#402=CARTESIAN_POINT('',(0.0562616505946469,0.0019725889569234,-0.0151641061058924));
#403=CARTESIAN_POINT('',(0.0558945212412039,0.000101514307873029,-0.0153167083326615));
#404=CARTESIAN_POINT('',(0.0561949989467192,-0.00177781031720022,-0.0151927367998819));
#405=CARTESIAN_POINT('',(0.0570667769968722,-0.0033791350250887,-0.0148585407684131));
#406=CARTESIAN_POINT('',(0.058391235466221,-0.00445418937920542,-0.0144866689932731));
#407=CARTESIAN_POINT('',(0.0599949222865456,-0.00489551561429762,-0.0142510046211571));
#408=CARTESIAN_POINT('',(0.0616134762213712,-0.00456373676697461,-0.0142840047970918));
#409=CARTESIAN_POINT('',(0.0630055616562591,-0.00354673999633656,-0.01451786154653));
#410=CARTESIAN_POINT('',(0.0639630551909123,-0.00195784038268727,-0.0147893634829856));
#411=CARTESIAN_POINT('',(0.064307749484934,-6.30823243486067E-5,-0.0149076255902313));
#412=CARTESIAN_POINT('',(0.0639992058578435,0.00182098025632815,-0.0148020801897331));
#413=CARTESIAN_POINT('',(0.064199113167837,1.8211001365241E-18,-0.014870411107856));
#414=CARTESIAN_POINT('',(-0.0562470069888581,-0.00194779828404359,-0.0151698547583504));
#415=CARTESIAN_POINT('',(-0.0558943698928303,-6.3946923432822E-5,-0.0153174667696402));
#416=CARTESIAN_POINT('',(-0.0562069750936505,0.00181592765018941,-0.0151855539099967));
#417=CARTESIAN_POINT('',(-0.0570686574603412,0.00337732626216478,-0.0148586986144392));
#418=CARTESIAN_POINT('',(-0.0583942351613581,0.00445873805009047,-0.014485227168452));
#419=CARTESIAN_POINT('',(-0.0599925638703204,0.00489339066431958,-0.0142517508823323));
#420=CARTESIAN_POINT('',(-0.0616198077168903,0.00456809704488912,-0.0142823302355418));
#421=CARTESIAN_POINT('',(-0.0630069122387271,0.00354435984951102,-0.0145185730667384));
#422=CARTESIAN_POINT('',(-0.063941657810436,0.00198239169073191,-0.0147850866141613));
#423=CARTESIAN_POINT('',(-0.0643088843987806,9.88939154514629E-5,-0.0149070701306782));
#424=CARTESIAN_POINT('',(-0.0640120400551867,-0.00178923163502307,-0.0148074046663944));
#425=CARTESIAN_POINT('',(-0.0631308907529848,-0.00340027323438159,-0.0145491154140066));
#426=CARTESIAN_POINT('',(-0.061783872267679,-0.00449050852656884,-0.0143000669128428));
#427=CARTESIAN_POINT('',(-0.0601632868337315,-0.00489444723577521,-0.0142423966534517));
#428=CARTESIAN_POINT('',(-0.0585518853436325,-0.0045410164835108,-0.0144499744541826));
#429=CARTESIAN_POINT('',(-0.0571903083582737,-0.00351916555210129,-0.0148176807137563));
#430=CARTESIAN_POINT('',(-0.0562470069888581,-0.00194779828404359,-0.0151698547583504));
#431=CARTESIAN_POINT('',(-0.0558943698928303,-6.3946923432822E-5,-0.0153174667696402));
#432=CARTESIAN_POINT('',(-0.0562069750936505,0.00181592765018941,-0.0151855539099967));
#433=CARTESIAN_POINT('',(-0.056004947365375,1.87015623034582E-18,-0.0152709845128236));
#434=CARTESIAN_POINT('',(-0.075,0.,0.007225));
#435=CARTESIAN_POINT('',(-0.075,0.,0.));
#436=CARTESIAN_POINT('',(-0.075,0.,0.0134508241489959));
#437=CARTESIAN_POINT('',(0.075,0.,0.007225));
#438=CARTESIAN_POINT('',(0.075,0.,0.));
#439=CARTESIAN_POINT('',(0.075,0.,0.0134508241489959));
#440=CARTESIAN_POINT('',(-0.06,1.22464679914735E-19,-0.017452));
#441=CARTESIAN_POINT('',(-0.0580239943457184,0.000401917011031136,-0.0131511244094363));
#442=CARTESIAN_POINT('',(-0.0579896728090249,9.28528277365714E-6,-0.0131787959621695));
#443=CARTESIAN_POINT('',(-0.0580177679470204,-0.000349324072291065,-0.0131549016298486));
#444=CARTESIAN_POINT('',(-0.0581340636370425,-0.000754536116160622,-0.0130690621520199));
#445=CARTESIAN_POINT('',(-0.0582884202023805,-0.00105043037339549,-0.0129641236409105));
#446=CARTESIAN_POINT('',(-0.058475907667704,-0.00131484052753157,-0.0128447771659417));
#447=CARTESIAN_POINT('',(-0.0587402906643688,-0.00156052348217532,-0.0126964608253602));
#448=CARTESIAN_POINT('',(-0.0589216233213497,-0.00168845362025952,-0.0126085809200544));
#449=CARTESIAN_POINT('',(-0.0590858360568891,-0.00178090353077615,-0.0125361750629449));
#450=CARTESIAN_POINT('',(-0.0591736715463416,-0.00182231611575321,-0.0125003660377859));
#451=CARTESIAN_POINT('',(-0.0592763946752588,-0.00186543005590418,-0.0124625186965368));
#452=CARTESIAN_POINT('',(-0.0594134391159871,-0.00191445353491212,-0.012416756250344));
#453=CARTESIAN_POINT('',(-0.0596376004850977,-0.00197427731308847,-0.0123536749993775));
#454=CARTESIAN_POINT('',(-0.0599493684225527,-0.00201022751404897,-0.0122944409591104));
#455=CARTESIAN_POINT('',(-0.0603262359231568,-0.00198822594651474,-0.0122713805722933));
#456=CARTESIAN_POINT('',(-0.0607416610461429,-0.00186970829877291,-0.0123059416546127));
#457=CARTESIAN_POINT('',(-0.061025384570398,-0.00172903795742061,-0.0123654898910154));
#458=CARTESIAN_POINT('',(-0.0613832884214758,-0.00147234879752019,-0.0124729142247519));
#459=CARTESIAN_POINT('',(-0.0616436666786648,-0.00115516215833744,-0.012584564449291));
#460=CARTESIAN_POINT('',(-0.0617698272383477,-0.000935184517267166,-0.0126443851151017));
#461=CARTESIAN_POINT('',(-0.0618546105655376,-0.00076390442424611,-0.012687272723154));
#462=CARTESIAN_POINT('',(-0.0619749826091857,-0.000402639625116094,-0.0127518149169928));
#463=CARTESIAN_POINT('',(-0.0620094237976744,-3.82335318890046E-5,-0.0127755762972427));
#464=CARTESIAN_POINT('',(-0.0619891836248927,0.000265712770890581,-0.0127614861618399));
#465=CARTESIAN_POINT('',(-0.0619345911620063,0.000523865963053516,-0.0127297696811317));
#466=CARTESIAN_POINT('',(-0.0618375296343361,0.000808153356136398,-0.0126781589888474));
#467=CARTESIAN_POINT('',(-0.0617381623346379,0.00100957576895866,-0.0126274243226515));
#468=CARTESIAN_POINT('',(-0.0614629440462743,0.0013958876553023,-0.0125045360352411));
#469=CARTESIAN_POINT('',(-0.06109555356344,0.00168710472213245,-0.0123829947013987));
#470=CARTESIAN_POINT('',(-0.0607097607953479,0.00189583424805695,-0.0122941474149932));
#471=CARTESIAN_POINT('',(-0.060139105047745,0.00202493880345154,-0.0122634222559952));
#472=CARTESIAN_POINT('',(-0.0597265777878416,0.00198714468340644,-0.0123361266192532));
#473=CARTESIAN_POINT('',(-0.0594721939140579,0.00193371293544913,-0.0124004021171894));
#474=CARTESIAN_POINT('',(-0.0592505652331914,0.00185746975706334,-0.0124727328059066));
#475=CARTESIAN_POINT('',(-0.0591333454202673,0.00180370768779032,-0.0125184313287765));
#476=CARTESIAN_POINT('',(-0.0589362548464381,0.00170246231444439,-0.0126005875635718));
#477=CARTESIAN_POINT('',(-0.058606012726463,0.00146395966127851,-0.0127640489003522));
#478=CARTESIAN_POINT('',(-0.0583172602909399,0.00110216122844116,-0.0129457928953323));
#479=CARTESIAN_POINT('',(-0.0581605032096778,0.000812979946287989,-0.0130536089474554));
#480=CARTESIAN_POINT('',(-0.0580239943457184,0.000401917011031136,-0.0131511244094363));
#481=CARTESIAN_POINT('',(-0.0579896728090249,9.28528277365714E-6,-0.0131787959621695));
#482=CARTESIAN_POINT('',(-0.0580177679470204,-0.000349324072291065,-0.0131549016298486));
#483=CARTESIAN_POINT('',(-0.058,-3.67394039744206E-19,-0.0131702368380962));
#484=CARTESIAN_POINT('',(0.06,1.22464679914735E-19,-0.017452));
#485=CARTESIAN_POINT('',(0.0619792386079475,0.000389052674093066,-0.0127560250670409));
#486=CARTESIAN_POINT('',(0.0620107009014655,1.59424948177958E-5,-0.0127756193464766));
#487=CARTESIAN_POINT('',(0.0619835634735803,-0.000301892926316787,-0.0127590794819922));
#488=CARTESIAN_POINT('',(0.0619282808790289,-0.000544712268475369,-0.012728692149037));
#489=CARTESIAN_POINT('',(0.061834011097175,-0.000813777725464055,-0.0126792736453121));
#490=CARTESIAN_POINT('',(0.0617485489896976,-0.000992714705933236,-0.0126332861279457));
#491=CARTESIAN_POINT('',(0.0614595836532459,-0.0014004352901647,-0.0125028559272632));
#492=CARTESIAN_POINT('',(0.0611024212857743,-0.00168180379589074,-0.012385486300309));
#493=CARTESIAN_POINT('',(0.0608105844316938,-0.00184131118451782,-0.0123205035838194));
#494=CARTESIAN_POINT('',(0.0604019694255728,-0.0019742282015063,-0.0122748344413856));
#495=CARTESIAN_POINT('',(0.0600249549272983,-0.00201038255175769,-0.0122855409037889));
#496=CARTESIAN_POINT('',(0.0597258258719926,-0.00198762083052257,-0.0123360079733751));
#497=CARTESIAN_POINT('',(0.0594713948580045,-0.00193336518697075,-0.0124006276749445));
#498=CARTESIAN_POINT('',(0.0592501669703835,-0.00185738478589102,-0.0124726554616918));
#499=CARTESIAN_POINT('',(0.0591299407537277,-0.00180211366102674,-0.0125194770353907));
#500=CARTESIAN_POINT('',(0.0589318132078106,-0.00169983114460726,-0.0126020818046072));
#501=CARTESIAN_POINT('',(0.0586037155008575,-0.00146035875120377,-0.0127656966254523));
#502=CARTESIAN_POINT('',(0.058324716865031,-0.00111273703809637,-0.0129409096055216));
#503=CARTESIAN_POINT('',(0.0581624169075757,-0.000818906495132055,-0.0130491433561457));
#504=CARTESIAN_POINT('',(0.0580279121690625,-0.000412732829396606,-0.013146432599807));
#505=CARTESIAN_POINT('',(0.0579903860135725,-3.55371473333252E-5,-0.0131785502338245));
#506=CARTESIAN_POINT('',(0.0580126998739832,0.00032741342690342,-0.0131588193407193));
#507=CARTESIAN_POINT('',(0.0581301130141749,0.000746235236838411,-0.0130718258152945));
#508=CARTESIAN_POINT('',(0.0582875770098377,0.00104928506277589,-0.0129646630770858));
#509=CARTESIAN_POINT('',(0.0584755374589196,0.00131454612940302,-0.012844961062182));
#510=CARTESIAN_POINT('',(0.0587408399494374,0.00156099868741753,-0.0126961764951981));
#511=CARTESIAN_POINT('',(0.0589225206350737,0.00168903132257264,-0.0126081723029336));
#512=CARTESIAN_POINT('',(0.059086867646023,0.00178143806229978,-0.0125357451509168));
#513=CARTESIAN_POINT('',(0.0591748094947972,0.00182282411864221,-0.0124999228202953));
#514=CARTESIAN_POINT('',(0.0592771523763772,0.00186571847483911,-0.0124622620997498));
#515=CARTESIAN_POINT('',(0.0594138090090552,0.00191454693407049,-0.0124167087435369));
#516=CARTESIAN_POINT('',(0.0596375647130544,0.00197433763436809,-0.012353832816112));
#517=CARTESIAN_POINT('',(0.0599523207589015,0.00201023604045875,-0.0122942052556806));
#518=CARTESIAN_POINT('',(0.0603252840553678,0.00198837337048966,-0.0122711568480008));
#519=CARTESIAN_POINT('',(0.0607444245366065,0.00186878793770554,-0.0123063097232562));
#520=CARTESIAN_POINT('',(0.0610222667665302,0.00172987567388942,-0.0123652991093966));
#521=CARTESIAN_POINT('',(0.0613799988150287,0.0014777961006609,-0.0124713069072506));
#522=CARTESIAN_POINT('',(0.0616570936371104,0.00113682409219968,-0.0125903659327595));
#523=CARTESIAN_POINT('',(0.0617780859835095,0.000918540647199318,-0.0126500008722588));
#524=CARTESIAN_POINT('',(0.0618551133703334,0.00076161931236279,-0.0126903009647554));
#525=CARTESIAN_POINT('',(0.0619792386079475,0.000389052674093066,-0.0127560250670409));
#526=CARTESIAN_POINT('',(0.0620107009014655,1.59424948177958E-5,-0.0127756193464766));
#527=CARTESIAN_POINT('',(0.0619835634735803,-0.000301892926316787,-0.0127590794819922));
#528=CARTESIAN_POINT('',(0.062,-3.67394039744206E-19,-0.0127690355783866));
#529=CARTESIAN_POINT('',(0.0620002911777961,0.000263541058395044,-0.0127692752194849));
#530=CARTESIAN_POINT('',(0.0619997088222039,-0.000263541058395042,-0.0127687959372884));
#531=CARTESIAN_POINT('',(0.0619474588338073,-0.000526392117539754,-0.0127381468615858));
#532=CARTESIAN_POINT('',(0.0617441339139288,-0.00101378416615719,-0.0126327537063731));
#533=CARTESIAN_POINT('',(0.0615960028582019,-0.00123310917638877,-0.0125616113014536));
#534=CARTESIAN_POINT('',(0.0610384125890567,-0.00178860960623849,-0.0123476145205682));
#535=CARTESIAN_POINT('',(0.060517746240231,-0.0020032580451224,-0.0122391905290026));
#536=CARTESIAN_POINT('',(0.0594613708592395,-0.00199668744256435,-0.0123564276775784));
#537=CARTESIAN_POINT('',(0.0589486257542956,-0.00177816952675859,-0.0125724375136203));
#538=CARTESIAN_POINT('',(0.058218523637565,-0.00104582718569779,-0.0129968454183751));
#539=CARTESIAN_POINT('',(0.0580002580730788,-0.000528683678614549,-0.0131700793579297));
#540=CARTESIAN_POINT('',(0.0579997421573965,0.000530041545511945,-0.0131703941465006));
#541=CARTESIAN_POINT('',(0.0582174454056963,0.00104601838246409,-0.0129963254298895));
#542=CARTESIAN_POINT('',(0.0587677527601887,0.00159610466623654,-0.0126781608767842));
#543=CARTESIAN_POINT('',(0.0589837069395981,0.00174250941535663,-0.0125705329772704));
#544=CARTESIAN_POINT('',(0.0594665270678538,0.0019450677524246,-0.0123924512878231));
#545=CARTESIAN_POINT('',(0.059725506917161,0.0019984535982312,-0.0123270309211248));
#546=CARTESIAN_POINT('',(0.060254522118131,0.00200149654652918,-0.0122684873225536));
#547=CARTESIAN_POINT('',(0.0605176652804833,0.00194940200555773,-0.0122780127161687));
#548=CARTESIAN_POINT('',(0.0610049115791914,0.00174948427363269,-0.0123546805956448));
#549=CARTESIAN_POINT('',(0.0612273176678731,0.00160063871175737,-0.0124205334456609));
#550=CARTESIAN_POINT('',(0.0615964611090935,0.00123242913401562,-0.0125613452425379));
#551=CARTESIAN_POINT('',(0.0617460218257036,0.00101014952579193,-0.0126336620804224));
#552=CARTESIAN_POINT('',(0.061946597916132,0.000527562879765867,-0.0127377704209239));
#553=CARTESIAN_POINT('',(0.0620002911777961,0.000263541058395044,-0.0127692752194849));
#554=CARTESIAN_POINT('',(0.0619997088222039,-0.000263541058395042,-0.0127687959372884));
#555=CARTESIAN_POINT('',(0.0641997092302316,0.000629716824916579,-0.0148706949012082));
#556=CARTESIAN_POINT('',(0.0641985171054424,-0.000629716824916575,-0.0148701273145038));
#557=CARTESIAN_POINT('',(0.0640915363059633,-0.00125776962459678,-0.0148336196937147));
#558=CARTESIAN_POINT('',(0.0636752096760299,-0.00242177935785253,-0.0147077464319419));
#559=CARTESIAN_POINT('',(0.0633718871694651,-0.0029452656537509,-0.0146226300142146));
#560=CARTESIAN_POINT('',(0.0622300499426819,-0.00426976205669398,-0.0143649495648649));
#561=CARTESIAN_POINT('',(0.0611636546578928,-0.00477915180296135,-0.0142309131562749));
#562=CARTESIAN_POINT('',(0.0589996596137975,-0.00475786467301086,-0.014350700078927));
#563=CARTESIAN_POINT('',(0.057949015799475,-0.00423445998004409,-0.0145933337957228));
#564=CARTESIAN_POINT('',(0.0564528385325986,-0.00248832323673312,-0.015073691648978));
#565=CARTESIAN_POINT('',(0.0560054762235726,-0.00125766900090701,-0.0152708060891357));
#566=CARTESIAN_POINT('',(0.0560044189795474,0.00126089942929482,-0.0152711627412741));
#567=CARTESIAN_POINT('',(0.0564506320384195,0.00248877513662939,-0.0150730762001382));
#568=CARTESIAN_POINT('',(0.0575783564134162,0.0038003615129729,-0.0147130083762189));
#569=CARTESIAN_POINT('',(0.0580208763983163,0.00414998025806726,-0.0145915966320661));
#570=CARTESIAN_POINT('',(0.0590101450406853,0.00463487615744183,-0.0143925546698732));
#571=CARTESIAN_POINT('',(0.0595407370260774,0.00476349927247742,-0.0143206434788776));
#572=CARTESIAN_POINT('',(0.0606244453938607,0.00477353306182792,-0.0142608678421702));
#573=CARTESIAN_POINT('',(0.0611634556769982,0.00465066906312099,-0.0142760044834565));
#574=CARTESIAN_POINT('',(0.062161412949926,0.00417593185883343,-0.0143726972908257));
#575=CARTESIAN_POINT('',(0.0626168905391998,0.00382158163076054,-0.0144527371441217));
#576=CARTESIAN_POINT('',(0.0633728261654881,0.0029436399567405,-0.0146223269626914));
#577=CARTESIAN_POINT('',(0.063679075557314,0.00241310123984967,-0.0147088332833412));
#578=CARTESIAN_POINT('',(0.0640897732915266,0.00126056341058657,-0.0148331681483082));
#579=CARTESIAN_POINT('',(0.0641997092302316,0.000629716824916579,-0.0148706949012082));
#580=CARTESIAN_POINT('',(0.0641985171054424,-0.000629716824916575,-0.0148701273145038));
#581=CARTESIAN_POINT('',(-0.056003804214557,-0.0012634842138161,-0.0152712411634516));
#582=CARTESIAN_POINT('',(-0.056005518940784,0.000631742106908041,-0.0152708561875096));
#583=CARTESIAN_POINT('',(-0.0561125942568574,0.00125045756296521,-0.015225301256306));
#584=CARTESIAN_POINT('',(-0.0565270770555798,0.00240789424193703,-0.0150640663451272));
#585=CARTESIAN_POINT('',(-0.05682676182484,0.0029244123522479,-0.0149531894477626));
#586=CARTESIAN_POINT('',(-0.057952571034475,0.00423921562994037,-0.0145931099300771));
#587=CARTESIAN_POINT('',(-0.059000060352629,0.0047587239912463,-0.014350549948223));
#588=CARTESIAN_POINT('',(-0.0606224553522117,0.00477340035984517,-0.0142609349618578));
#589=CARTESIAN_POINT('',(-0.0611608921526863,0.00465305074733391,-0.0142754674303079));
#590=CARTESIAN_POINT('',(-0.0621584363772326,0.00417619149573388,-0.0143726975621533));
#591=CARTESIAN_POINT('',(-0.0626127925697542,0.003825582039431,-0.0144513733271547));
#592=CARTESIAN_POINT('',(-0.0637530534256551,0.00250355297343147,-0.0147085312253438));
#593=CARTESIAN_POINT('',(-0.0641988078341387,0.00126389961417468,-0.0148703670411074));
#594=CARTESIAN_POINT('',(-0.0641994181756096,-0.00126659601994806,-0.0148704550671941));
#595=CARTESIAN_POINT('',(-0.0637549999423664,-0.00250191702326307,-0.0147089369516528));
#596=CARTESIAN_POINT('',(-0.0626129761793196,-0.00382505893121651,-0.0144514272984582));
#597=CARTESIAN_POINT('',(-0.062160958225173,-0.00417614539718369,-0.0143726250304192));
#598=CARTESIAN_POINT('',(-0.061158166564988,-0.00465319387641162,-0.0142755202495655));
#599=CARTESIAN_POINT('',(-0.0606181870525242,-0.00477326633411167,-0.014261489675415));
#600=CARTESIAN_POINT('',(-0.05953886084796,-0.00476369332750299,-0.0143204666302276));
#601=CARTESIAN_POINT('',(-0.059003399209739,-0.00463185721929482,-0.014393789075651));
#602=CARTESIAN_POINT('',(-0.0580236144202089,-0.00415102987722921,-0.0145911691262724));
#603=CARTESIAN_POINT('',(-0.0575755453775578,-0.00379831151711387,-0.0147137190025394));
#604=CARTESIAN_POINT('',(-0.0564544493839686,-0.00249077051481207,-0.0150722264327084));
#605=CARTESIAN_POINT('',(-0.056003804214557,-0.0012634842138161,-0.0152712411634516));
#606=CARTESIAN_POINT('',(-0.056005518940784,0.000631742106908041,-0.0152708561875096));
#607=CARTESIAN_POINT('',(-0.0579994420774237,-0.000531114095267121,-0.0131704653699448));
#608=CARTESIAN_POINT('',(-0.0580002789612882,0.000265557047633557,-0.0131701225721719));
#609=CARTESIAN_POINT('',(-0.0580525214221126,0.000525609109029234,-0.0131300619844833));
#610=CARTESIAN_POINT('',(-0.0582547602136597,0.00101186644605953,-0.0129880887244465));
#611=CARTESIAN_POINT('',(-0.058400989525291,0.00122872601255719,-0.0128903859797057));
#612=CARTESIAN_POINT('',(-0.058950361810331,0.00178016426687447,-0.0125722250795951));
#613=CARTESIAN_POINT('',(-0.0594615701501445,0.0019970402065511,-0.0123563032168724));
#614=CARTESIAN_POINT('',(-0.0602535526639866,0.0020014390120429,-0.0122685620558833));
#615=CARTESIAN_POINT('',(-0.0605164134613828,0.00195040186297858,-0.0122775676293535));
#616=CARTESIAN_POINT('',(-0.0610034584816445,0.00174959668793985,-0.0123547000734609));
#617=CARTESIAN_POINT('',(-0.0612253162525631,0.00160231732333889,-0.0124193893368255));
#618=CARTESIAN_POINT('',(-0.0617821367295001,0.0010478545780471,-0.0126329451413681));
#619=CARTESIAN_POINT('',(-0.0619998509106717,0.000528947032646933,-0.012768999642841));
#620=CARTESIAN_POINT('',(-0.0620001489301471,-0.000530075504952069,-0.0127690714238257));
#621=CARTESIAN_POINT('',(-0.0617830872259501,-0.00104716791126671,-0.0126332811088382));
#622=CARTESIAN_POINT('',(-0.0612254059305434,-0.00160209820080429,-0.0124194345325514));
#623=CARTESIAN_POINT('',(-0.0610046895082872,-0.00174957434095108,-0.0123546213315239));
#624=CARTESIAN_POINT('',(-0.0605150829601343,-0.00195046507022118,-0.0122776307433264));
#625=CARTESIAN_POINT('',(-0.0602514673499585,-0.00200139128415505,-0.0122690638574235));
#626=CARTESIAN_POINT('',(-0.0597245908236621,-0.0019985370638219,-0.0123268907059778));
#627=CARTESIAN_POINT('',(-0.0594632346861138,-0.00194380713787395,-0.012393559687478));
#628=CARTESIAN_POINT('',(-0.0589850432798004,-0.00174294736018157,-0.0125701464930211));
#629=CARTESIAN_POINT('',(-0.0587663808791581,-0.00159524629060356,-0.0126787923562379));
#630=CARTESIAN_POINT('',(-0.0582193084949091,-0.00104685244445076,-0.0129955675247701));
#631=CARTESIAN_POINT('',(-0.0579994420774237,-0.000531114095267121,-0.0131704653699448));
#632=CARTESIAN_POINT('',(-0.0580002789612882,0.000265557047633557,-0.0131701225721719));
#633=CARTESIAN_POINT('',(-0.075,0.,0.));
#634=CARTESIAN_POINT('',(0.0740021718500159,0.,0.));
#635=MECHANICAL_DESIGN_GEOMETRIC_PRESENTATION_REPRESENTATION('',(#151,#130,
#131,#132,#133,#134,#135,#136,#137,#138,#139),#636);
#636=(
GEOMETRIC_REPRESENTATION_CONTEXT(3)
GLOBAL_UNCERTAINTY_ASSIGNED_CONTEXT((#637))
GLOBAL_UNIT_ASSIGNED_CONTEXT((#640,#639,#638))
REPRESENTATION_CONTEXT('7/8" Handle Grip','TOP_LEVEL_ASSEMBLY_PART')
);
#637=UNCERTAINTY_MEASURE_WITH_UNIT(LENGTH_MEASURE(5.E-6),#640,
'DISTANCE_ACCURACY_VALUE','Maximum Tolerance applied to model');
#638=(
NAMED_UNIT(*)
SI_UNIT($,.STERADIAN.)
SOLID_ANGLE_UNIT()
);
#639=(
NAMED_UNIT(*)
PLANE_ANGLE_UNIT()
SI_UNIT($,.RADIAN.)
);
#640=(
LENGTH_UNIT()
NAMED_UNIT(*)
SI_UNIT($,.METRE.)
);
#641=PRODUCT_DEFINITION_SHAPE('','',#642);
#642=PRODUCT_DEFINITION('','',#644,#643);
#643=PRODUCT_DEFINITION_CONTEXT('',#650,'design');
#644=PRODUCT_DEFINITION_FORMATION_WITH_SPECIFIED_SOURCE('','',#646,
 .NOT_KNOWN.);
#645=PRODUCT_RELATED_PRODUCT_CATEGORY('','',(#646));
#646=PRODUCT('7/8" Handle Grip','7/8" Handle Grip','7/8" Handle Grip',(#648));
#647=PRODUCT_CATEGORY('','');
#648=PRODUCT_CONTEXT('',#650,'mechanical');
#649=APPLICATION_PROTOCOL_DEFINITION('international standard',
'ap242_managed_model_based_3d_engineering',2011,#650);
#650=APPLICATION_CONTEXT('managed model based 3d engineering');
ENDSEC;
END-ISO-10303-21;
